<?xml version="1.0" encoding="UTF-8" standalone="no"?><!DOCTYPE svg PUBLIC "-//W3C//DTD SVG 1.1//EN" "http://www.w3.org/Graphics/SVG/1.1/DTD/svg11.dtd"><svg width="100%" height="100%" viewBox="0 0 8000 4500" version="1.1" xmlns="http://www.w3.org/2000/svg" xmlns:xlink="http://www.w3.org/1999/xlink" xml:space="preserve" xmlns:serif="http://www.serif.com/" style="fill-rule:evenodd;clip-rule:evenodd;stroke-linecap:square;stroke-miterlimit:20;"><path d="M4635.22,4585.44l-2606.74,-851.665l3958.43,-3733.78" style="fill:none;stroke:#000;stroke-width:250px;"/><path d="M-1472.76,3719.12l2555.96,-2808.14l-3958.43,-3733.78" style="fill:none;stroke:#000;stroke-width:250px;"/><path d="M6593.71,3314.69l-1246.03,-1246.03l-175.614,175.613l1246.03,1246.03l175.614,-175.614Z" style="fill:#45b333;"/><path d="M6593.71,3314.69l-175.614,175.614l-1246.03,-1246.03l175.614,-175.613l1246.03,1246.03Z" style="fill:#44cb2e;"/><path d="M6794.43,3366.36l-175.614,175.613l-1246.03,-1246.03l175.614,-175.614l1246.03,1246.03Zm-1392.18,-1070.41l1216.57,1216.57l146.15,-146.15l-1216.57,-1216.57l-146.151,146.151Z"/><path d="M3044.78,1361.19l-175.614,175.614l-1246.03,-1246.03l175.614,-175.613l1246.03,1246.03Z" style="fill:#0a4800;"/><path d="M3137.74,1555.41l-175.613,175.613l-1246.03,-1246.03l175.614,-175.614l1246.03,1246.03Zm-1392.18,-1070.41l1216.57,1216.57l146.151,-146.151l-1216.57,-1216.57l-146.151,146.151Z"/><path d="M5588.43,1228.12l790.079,190.921l-1163.9,530.838l373.817,-721.759Z" style="fill:#f7236b;"/><path d="M6593.71,1392.38l-1163.9,530.838l373.817,-721.759l790.079,190.921Zm-1117.65,486.848l1054.12,-480.768l-715.557,-172.914l-338.558,653.682Z"/><path d="M5110.51,2667.46l-530.536,-598.797l-747.24,868.037l1277.78,-269.24Z" style="fill:#29c5f7;"/><path d="M5277.78,2719.12l-1277.78,269.239l747.24,-868.037l530.535,598.798Zm-1221.81,236.155l1182.45,-249.154l-490.958,-554.128l-691.497,803.282Z"/><path d="M2192.13,2197.07l630.5,-245.84l-710.821,-792.106l80.321,1037.95Z" style="fill:#a50c00;"/><path d="M2772.7,2113.86l-630.499,245.84l-80.322,-1037.94l710.821,792.105Zm-611.895,216.225l576.294,-224.705l-649.71,-724.006l73.416,948.711Z"/><path d="M2864.97,260.985l480.654,1068.4l944.695,-509.252l-1425.35,-559.149Z" style="fill:#0d37c4;"/><path d="M4290.32,1003.49l-944.695,509.252l-480.654,-1068.4l1425.35,559.149Zm-934.879,480.293l885.439,-477.309l-1335.94,-524.076l450.504,1001.38Z"/></svg>