<?xml version="1.0" encoding="UTF-8" standalone="no"?>
<!DOCTYPE svg PUBLIC "-//W3C//DTD SVG 1.1//EN" "http://www.w3.org/Graphics/SVG/1.1/DTD/svg11.dtd">
<svg width="100%" height="100%" viewBox="0 0 1920 1080" version="1.1" xmlns="http://www.w3.org/2000/svg" xmlns:xlink="http://www.w3.org/1999/xlink" xml:space="preserve" xmlns:serif="http://www.serif.com/" style="fill-rule:evenodd;clip-rule:evenodd;stroke-linecap:square;stroke-miterlimit:20;">
    <path d="M1112.45,1100.51L486.834,896.107L1436.86,0" style="fill:none;stroke:black;stroke-width:60px;"/>
    <g transform="matrix(-1,0,0,1,746.803,-677.472)">
        <path d="M1100.27,1570.06L486.834,896.107L1436.86,0" style="fill:none;stroke:black;stroke-width:60px;"/>
    </g>
    <g transform="matrix(0.732745,0.732745,-0.5009,0.5009,675.7,-617.12)">
        <rect x="1174.58" y="504.947" width="408.118" height="84.143" style="fill:rgb(69,179,51);"/>
        <rect x="1174.58" y="504.947" width="408.118" height="84.143" style="fill:rgb(68,203,46);"/>
    </g>
    <g transform="matrix(0.732745,0.732745,-0.5009,0.5009,723.873,-604.721)">
        <path d="M1582.7,504.947L1582.7,589.09L1174.58,589.09L1174.58,504.947L1582.7,504.947ZM1179.41,582.032L1577.88,582.032L1577.88,512.006L1179.41,512.006L1179.41,582.032Z"/>
    </g>
    <g transform="matrix(0.732745,0.732745,-0.5009,0.5009,-176.044,-1085.96)">
        <rect x="1174.58" y="504.947" width="408.118" height="84.143" style="fill:rgb(10,72,0);"/>
    </g>
    <g transform="matrix(0.732745,0.732745,-0.5009,0.5009,-153.731,-1039.35)">
        <path d="M1582.7,504.947L1582.7,589.09L1174.58,589.09L1174.58,504.947L1582.7,504.947ZM1179.41,582.032L1577.88,582.032L1577.88,512.006L1179.41,512.006L1179.41,582.032Z"/>
    </g>
    <g transform="matrix(0.912271,-0.416075,0.326417,0.715689,-109.416,680.629)">
        <path d="M1476.03,318.933L1629.12,471.962L1322.93,471.962L1476.03,318.933Z" style="fill:rgb(247,35,107);"/>
    </g>
    <g transform="matrix(0.912271,-0.416075,0.326417,0.715689,-57.7693,674.23)">
        <path d="M1629.12,471.962L1322.93,471.962L1476.03,318.933L1629.12,471.962ZM1337.37,465.606L1614.68,465.606L1476.03,327.01L1337.37,465.606Z"/>
    </g>
    <g transform="matrix(0.836072,0,0,0.85782,198.277,70.5893)">
        <path d="M1229.85,664.01L1077.56,496.479L863.058,739.337L1229.85,664.01Z" style="fill:rgb(41,197,247);"/>
    </g>
    <g transform="matrix(0.836072,0,0,0.85782,238.421,82.9889)">
        <path d="M1229.85,664.01L863.058,739.337L1077.56,496.479L1229.85,664.01ZM879.124,730.081L1218.56,660.373L1077.62,505.339L879.124,730.081Z"/>
    </g>
    <g transform="matrix(1,0,0,1,117.282,30.8174)">
        <path d="M408.829,496.479L560.149,437.477L389.552,247.372L408.829,496.479Z" style="fill:rgb(165,12,0);"/>
    </g>
    <g transform="matrix(1,0,0,1,105.299,69.8487)">
        <path d="M560.149,437.477L408.829,496.479L389.552,247.372L560.149,437.477ZM413.294,489.371L551.605,435.442L395.674,261.68L413.294,489.371Z"/>
    </g>
    <g transform="matrix(1,0,0,1,20,-10)">
        <path d="M667.594,72.637L782.951,329.053L1009.68,206.832L667.594,72.637Z" style="fill:rgb(13,55,196);"/>
    </g>
    <g transform="matrix(1,0,0,1,20,34.0049)">
        <path d="M1009.68,206.832L782.951,329.053L667.594,72.637L1009.68,206.832ZM785.307,322.102L997.812,207.548L677.186,81.77L785.307,322.102Z"/>
    </g>
</svg>
