<?xml version="1.0" encoding="UTF-8" standalone="no"?><!DOCTYPE svg PUBLIC "-//W3C//DTD SVG 1.1//EN" "http://www.w3.org/Graphics/SVG/1.1/DTD/svg11.dtd"><svg width="100%" height="100%" viewBox="0 0 1920 1080" version="1.1" xmlns="http://www.w3.org/2000/svg" xmlns:xlink:href="data:image/png;base64", xml:space="preserve" xmlns:serif="http://www.serif.com/" style="fill-rule:evenodd;clip-rule:evenodd;stroke-linecap:square;stroke-miterlimit:20;"><path d="M1112.45,1100.51l-625.618,-204.4l950.023,-896.107" style="fill:none;stroke:#000;stroke-width:60px;"/><path d="M-353.462,892.589l613.431,-673.954l-950.023,-896.107" style="fill:none;stroke:#000;stroke-width:60px;"/><path d="M1582.49,795.525l-299.047,-299.046l-42.147,42.147l299.047,299.047l42.147,-42.148Z" style="fill:#45b333;"/><path d="M1582.49,795.525l-42.147,42.148l-299.047,-299.047l42.147,-42.147l299.047,299.046Z" style="fill:#44cb2e;"/><path d="M1630.66,807.925l-42.147,42.147l-299.047,-299.046l42.147,-42.148l299.047,299.047Zm-334.123,-256.899l291.976,291.975l35.076,-35.076l-291.976,-291.976l-35.076,35.077Z"/><path d="M730.746,326.687l-42.147,42.147l-299.047,-299.047l42.147,-42.147l299.047,299.047Z" style="fill:#0a4800;"/><path d="M753.058,373.299l-42.147,42.148l-299.047,-299.047l42.148,-42.148l299.046,299.047Zm-334.123,-256.899l291.976,291.975l35.076,-35.076l-291.975,-291.976l-35.077,35.077Z"/><path d="M1341.22,294.749l189.619,45.821l-279.335,127.401l89.716,-173.222Z" style="fill:#f7236b;"/><path d="M1582.49,334.17l-279.335,127.402l89.716,-173.223l189.619,45.821Zm-268.236,116.844l252.988,-115.384l-171.734,-41.5l-81.254,156.884Z"/><path d="M1226.52,640.19l-127.328,-143.711l-179.338,208.329l306.666,-64.618Z" style="fill:#29c5f7;"/><path d="M1266.67,652.59l-306.666,64.617l179.338,-208.329l127.328,143.712Zm-293.233,56.677l283.789,-59.797l-117.83,-132.991l-165.959,192.788Z"/><path d="M526.111,527.296l151.32,-59.002l-170.597,-190.105l19.277,249.107Z" style="fill:#a50c00;"/><path d="M665.447,507.326l-151.32,59.001l-19.277,-249.107l170.597,190.106Zm-146.855,51.894l138.311,-53.929l-155.93,-173.762l17.619,227.691Z"/><path d="M687.594,62.637l115.357,256.416l226.727,-122.221l-342.084,-134.195Z" style="fill:#0d37c4;"/><path d="M1029.68,240.837l-226.727,122.221l-115.357,-256.417l342.084,134.196Zm-224.371,115.27l212.505,-114.554l-320.626,-125.778l108.121,240.332Z"/></svg>