<?xml version="1.0" encoding="UTF-8" standalone="no"?><!DOCTYPE svg PUBLIC "-//W3C//DTD SVG 1.1//EN" "http://www.w3.org/Graphics/SVG/1.1/DTD/svg11.dtd"><svg width="100%" height="100%" viewBox="0 0 612 792" version="1.1" xmlns="http://www.w3.org/2000/svg" xmlns:xlink="http://www.w3.org/1999/xlink" xml:space="preserve" xmlns:serif="http://www.serif.com/" style="fill-rule:evenodd;clip-rule:evenodd;stroke-linecap:round;stroke-linejoin:round;stroke-miterlimit:1.5;"><g id="Layer1"><path d="M352.544,430.173c-18.861,25.689 -55.029,31.232 -80.717,12.371c-25.689,-18.861 -31.232,-55.029 -12.371,-80.717c18.861,-25.689 55.029,-31.232 80.717,-12.371c25.689,18.861 31.232,55.029 12.371,80.717Z" style="fill:none;stroke:#ff0400;stroke-opacity:0.8;stroke-width:4px;"/><path d="M352.544,545.645c-18.861,25.689 -55.029,31.232 -80.717,12.371c-25.689,-18.861 -31.232,-55.029 -12.371,-80.717c18.861,-25.689 55.029,-31.232 80.717,-12.371c25.689,18.86 31.232,55.029 12.371,80.717Z" style="fill:none;stroke:#ece400;stroke-width:4px;"/><path d="M352.544,314.701c-18.861,25.689 -55.029,31.232 -80.717,12.371c-25.689,-18.86 -31.232,-55.029 -12.371,-80.717c18.861,-25.689 55.029,-31.232 80.717,-12.371c25.689,18.861 31.232,55.029 12.371,80.717Z" style="fill:none;stroke:#003cff;stroke-opacity:0.8;stroke-width:4px;"/><path d="M281.921,63.142c0,0 -169.607,249.955 -169.607,357.078c0,93.609 75.999,169.607 169.607,169.607c93.609,0 169.607,-75.998 169.607,-169.607c0,-107.123 -169.607,-357.078 -169.607,-357.078Z" style="fill:none;stroke:#000;stroke-opacity:0.737255;stroke-width:6px;"/><path d="M265.869,64.405c0,0 -169.607,249.955 -169.607,357.079c0,93.609 75.998,169.607 169.607,169.607c93.609,0 169.607,-75.998 169.607,-169.607c0,-107.124 -169.607,-357.079 -169.607,-357.079Z" style="fill:none;stroke:#000;stroke-opacity:0.737255;stroke-width:6px;"/><path d="M297.974,64.405c0,0 -169.607,249.955 -169.607,357.079c0,93.609 75.998,169.607 169.607,169.607c93.608,0 169.607,-75.998 169.607,-169.607c0,-107.124 -169.607,-357.079 -169.607,-357.079Z" style="fill:none;stroke:#000;stroke-opacity:0.737255;stroke-width:6px;"/><path d="M330.079,61.878c0,0 -169.607,249.955 -169.607,357.079c0,93.609 75.998,169.607 169.607,169.607c93.608,0 169.607,-75.998 169.607,-169.607c0,-107.124 -169.607,-357.079 -169.607,-357.079Z" style="fill:none;stroke:#000;stroke-opacity:0.737255;stroke-width:6px;"/><path d="M314.026,63.142c0,0 -169.607,249.955 -169.607,357.078c0,93.609 75.999,169.607 169.607,169.607c93.609,0 169.607,-75.998 169.607,-169.607c0,-107.123 -169.607,-357.078 -169.607,-357.078Z" style="fill:none;stroke:#000;stroke-opacity:0.737255;stroke-width:6px;"/><path d="M346.131,63.142c0,0 -169.607,249.955 -169.607,357.078c0,93.609 75.998,169.607 169.607,169.607c93.609,0 169.607,-75.998 169.607,-169.607c0,-107.123 -169.607,-357.078 -169.607,-357.078Z" style="fill:none;stroke:#000;stroke-opacity:0.737255;stroke-width:6px;"/></g></svg>